<svg width="24" height="22" viewBox="0 0 24 22" fill="none" xmlns="http://www.w3.org/2000/svg">
<path d="M22.7491 9.80833V20.1667C22.7491 20.6556 22.57 21.0833 22.2118 21.45C21.8535 21.8167 21.4356 22 20.958 22H3.0166C2.53896 22 2.12102 21.8167 1.76279 21.45C1.40456 21.0833 1.22545 20.6556 1.22545 20.1667V9.80833C0.668199 9.31944 0.300018 8.71852 0.120903 8.00556C-0.0582124 7.29259 -0.0383108 6.57963 0.180608 5.86667L1.46427 1.74167C1.62348 1.19167 1.9021 0.763889 2.30014 0.458333C2.69817 0.152778 3.15591 0 3.67335 0H20.1818C20.739 0 21.2266 0.15787 21.6446 0.473611C22.0625 0.789352 22.3511 1.21204 22.5103 1.74167L23.8238 5.86667C24.0427 6.57963 24.0576 7.29259 23.8686 8.00556C23.6795 8.71852 23.3064 9.31944 22.7491 9.80833ZM14.6889 8.86111C15.2661 8.86111 15.7537 8.66759 16.1517 8.28055C16.5497 7.89352 16.709 7.425 16.6293 6.875L15.883 1.83333H12.8978V6.875C12.8978 7.40463 13.0669 7.86806 13.4053 8.26528C13.7436 8.6625 14.1715 8.86111 14.6889 8.86111ZM9.10651 8.86111C9.66376 8.86111 10.1364 8.66759 10.5245 8.28055C10.9126 7.89352 11.1066 7.425 11.1066 6.875V1.83333H8.12138L7.37506 6.875C7.29546 7.40463 7.43477 7.86806 7.793 8.26528C8.15123 8.6625 8.58907 8.86111 9.10651 8.86111ZM3.67335 8.86111C4.15099 8.86111 4.56395 8.69306 4.91223 8.35694C5.26051 8.02083 5.4645 7.60833 5.52421 7.11944L6.30037 1.83333H3.31512L1.94191 6.29444C1.74289 6.92593 1.8225 7.51157 2.18073 8.05139C2.53896 8.5912 3.0365 8.86111 3.67335 8.86111ZM20.3012 8.86111C20.9381 8.86111 21.4406 8.5963 21.8088 8.06667C22.1769 7.53704 22.2615 6.9463 22.0625 6.29444L20.6893 1.83333H17.704L18.4802 7.11944C18.5399 7.60833 18.7439 8.02083 19.0922 8.35694C19.4405 8.69306 19.8435 8.86111 20.3012 8.86111ZM3.0166 20.1667H20.958V10.6639C20.9779 10.6843 20.9132 10.6944 20.7639 10.6944H20.3012C19.8037 10.6944 19.331 10.5875 18.8832 10.3736C18.4354 10.1597 17.9926 9.8287 17.5548 9.38056C17.2363 9.78796 16.8383 10.1088 16.3607 10.3431C15.883 10.5773 15.3556 10.6944 14.7785 10.6944C14.1814 10.6944 13.669 10.6079 13.2411 10.4347C12.8132 10.2616 12.4002 9.9713 12.0022 9.56389C11.7037 9.93056 11.3255 10.2106 10.8678 10.4042C10.4101 10.5977 9.89262 10.6944 9.31548 10.6944C8.69852 10.6944 8.15123 10.5824 7.67359 10.3583C7.19595 10.1343 6.78796 9.80833 6.44964 9.38056C5.97199 9.80833 5.50431 10.1343 5.04657 10.3583C4.58883 10.5824 4.13109 10.6944 3.67335 10.6944H3.27034C3.14098 10.6944 3.0564 10.6843 3.0166 10.6639V20.1667Z" fill="black" fill-opacity="0.5"/>
</svg>
