<svg width="20" height="20" viewBox="0 0 20 20" fill="none" xmlns="http://www.w3.org/2000/svg">
<path d="M13.8499 2.49172C13.7532 2.39471 13.6382 2.31775 13.5117 2.26523C13.3851 2.21272 13.2494 2.18569 13.1124 2.18569C12.9754 2.18569 12.8397 2.21272 12.7132 2.26523C12.5866 2.31775 12.4717 2.39471 12.3749 2.49172L5.44998 9.41667C5.37273 9.49376 5.31144 9.58533 5.26963 9.68614C5.22781 9.78695 5.20628 9.89502 5.20628 10.0042C5.20628 10.1133 5.22781 10.2214 5.26963 10.3222C5.31144 10.423 5.37273 10.5146 5.44998 10.5917L12.3749 17.5166C12.7833 17.9249 13.4416 17.9249 13.8499 17.5166C14.2583 17.1083 14.2583 16.4499 13.8499 16.0416L7.81663 10L13.8583 3.95837C14.2583 3.55838 14.2583 2.89171 13.8499 2.49172Z" fill="#1E232C" stroke="#1E232C" stroke-width="0.210417"/>
</svg>
