<svg width="28" height="28" viewBox="0 0 28 28" fill="none" xmlns="http://www.w3.org/2000/svg">
<g clip-path="url(#clip0_1_380)">
<path d="M8.25811 27.4759C7.70606 27.1087 7.21679 26.6549 6.80911 26.1319C6.36066 25.5922 5.94516 25.0259 5.56486 24.4362C4.67244 23.1288 3.97257 21.6999 3.48674 20.1933C2.90312 18.4433 2.62049 16.766 2.62049 15.1253C2.62049 13.2931 3.01687 11.6936 3.79212 10.3496C4.3668 9.29912 5.21173 8.42126 6.23949 7.80686C7.2355 7.18821 8.37994 6.84965 9.55223 6.82686C9.9626 6.82686 10.4045 6.88636 10.8735 7.00011C11.2103 7.09549 11.6207 7.24599 12.1221 7.43324C12.76 7.67911 13.1108 7.82961 13.2298 7.86636C13.6035 8.00286 13.9176 8.06236 14.1643 8.06236C14.3516 8.06236 14.6158 8.00286 14.916 7.91186C15.0848 7.85236 15.4033 7.74736 15.8592 7.55223C16.3107 7.38773 16.666 7.24686 16.9486 7.14186C17.3817 7.01411 17.8008 6.89599 18.1745 6.83649C18.6174 6.76666 19.0669 6.74816 19.5141 6.78136C20.289 6.83201 21.0523 6.99622 21.7794 7.26874C22.9686 7.74736 23.9302 8.49461 24.6459 9.55686C24.3434 9.74331 24.0595 9.95838 23.7981 10.1991C23.229 10.7036 22.7442 11.2959 22.3622 11.9535C21.8628 12.8522 21.6039 13.8645 21.6106 14.8926C21.6289 16.1552 21.9527 17.2673 22.5906 18.229C23.0595 18.9417 23.669 19.5511 24.3817 20.0201C24.7466 20.266 25.0607 20.4348 25.3617 20.5486C25.2208 20.9861 25.0703 21.4096 24.8927 21.8296C24.4898 22.7714 24.0016 23.6744 23.4341 24.5272C22.9283 25.2613 22.5319 25.8082 22.2309 26.1722C21.7619 26.7278 21.3105 27.1522 20.8546 27.4479C20.3532 27.7804 19.7608 27.9581 19.1588 27.9581C18.7511 27.9737 18.3435 27.9244 17.9513 27.8119C17.6145 27.6982 17.2811 27.5748 16.953 27.4339C16.6118 27.2773 16.2601 27.1448 15.9003 27.0376C15.0111 26.8092 14.0787 26.8077 13.1887 27.0332C12.8238 27.1382 12.473 27.2607 12.1265 27.4112C11.6391 27.6159 11.3153 27.7533 11.1281 27.8119C10.7545 27.9213 10.3669 27.9896 9.97485 28.0123C9.36848 28.0123 8.80323 27.8391 8.24323 27.4882L8.25811 27.4759ZM16.2556 5.93786C15.4628 6.33424 14.706 6.50311 13.9543 6.44799C13.8362 5.69111 13.9543 4.91674 14.2685 4.06887C14.5359 3.35055 14.931 2.68653 15.4348 2.10887C15.9668 1.50077 16.6124 1.00233 17.3353 0.641499C18.1053 0.245125 18.8395 0.0307502 19.5412 -0.000749712C19.6322 0.791999 19.5412 1.57162 19.2498 2.41425C18.9802 3.15912 18.5858 3.85268 18.0835 4.46524C17.5708 5.07418 16.9416 5.57455 16.2328 5.93699L16.2556 5.93786Z" fill="black"/>
</g>
<defs>
<clipPath id="clip0_1_380">
<rect width="27.3542" height="27.3542" fill="white" transform="scale(1.02361)"/>
</clipPath>
</defs>
</svg>
