<svg width="110" height="110" viewBox="0 0 110 110" fill="none" xmlns="http://www.w3.org/2000/svg">
<path d="M106.128 54.999C107.827 53.0207 109.017 50.6578 109.596 48.1153C110.175 45.5727 110.125 42.9274 109.45 40.4086C108.775 37.8899 107.496 35.5739 105.723 33.6615C103.95 31.7491 101.738 30.2981 99.2774 29.4343C99.7594 26.8716 99.6089 24.2299 98.8389 21.7385C98.0689 19.247 96.7025 16.9811 94.8585 15.1373C93.0144 13.2935 90.7484 11.9275 88.2568 11.1578C85.7653 10.388 83.1236 10.2379 80.5609 10.7203C79.6978 8.25932 78.2471 6.04621 76.3347 4.27311C74.4223 2.50001 72.106 1.22051 69.5869 0.545695C67.0678 -0.129118 64.422 -0.178845 61.8794 0.400831C59.3367 0.980506 56.9739 2.17206 54.9962 3.87205C53.0179 2.17323 50.655 0.98275 48.1125 0.403875C45.57 -0.175 42.9245 -0.124783 40.4058 0.550169C37.8871 1.22512 35.5711 2.50442 33.6587 4.27709C31.7463 6.04976 30.2953 8.26227 29.4316 10.7227C26.869 10.241 24.2275 10.3919 21.7364 11.1621C19.2453 11.9323 16.9798 13.2987 15.1363 15.1427C13.2928 16.9867 11.927 19.2526 11.1574 21.7439C10.3877 24.2352 10.2376 26.8766 10.7199 29.4391C8.25948 30.3028 6.04696 31.7538 4.27429 33.6662C2.50162 35.5786 1.22231 37.8946 0.547361 40.4134C-0.12759 42.9321 -0.177815 45.5775 0.40106 48.1201C0.979935 50.6626 2.17044 53.0255 3.86926 55.0038C2.16992 56.982 0.979052 59.3451 0.400012 61.8879C-0.179027 64.4307 -0.128759 67.0764 0.546488 69.5954C1.22174 72.1143 2.50154 74.4304 4.27482 76.3427C6.0481 78.2549 8.26129 79.7055 10.7223 80.5685C10.2396 83.131 10.3895 85.7726 11.1592 88.2641C11.9289 90.7555 13.2951 93.0214 15.1391 94.8652C16.983 96.7089 19.2491 98.0747 21.7407 98.8441C24.2322 99.6135 26.8738 99.7632 29.4363 99.2801C30.3001 101.741 31.751 103.953 33.6634 105.726C35.5758 107.498 37.8918 108.778 40.4106 109.453C42.9293 110.128 45.5747 110.178 48.1172 109.599C50.6598 109.02 53.0227 107.83 55.001 106.131C56.9792 107.83 59.3423 109.021 61.8851 109.6C64.4279 110.179 67.0736 110.129 69.5926 109.454C72.1115 108.778 74.4277 107.498 76.3399 105.725C78.2521 103.952 79.7027 101.739 80.5657 99.2777C83.1283 99.7603 85.77 99.6102 88.2614 98.8405C90.7529 98.0708 93.0189 96.7047 94.8628 94.8608C96.7067 93.0169 98.0728 90.7509 98.8425 88.2595C99.6122 85.768 99.7623 83.1263 99.2797 80.5637C101.74 79.7002 103.953 78.2492 105.726 76.3367C107.499 74.4243 108.778 72.1081 109.453 69.5892C110.127 67.0703 110.177 64.4248 109.598 61.8822C109.018 59.3397 107.827 56.9769 106.128 54.999Z" fill="#18C07A"/>
<path d="M45.1257 75.9941L29.8417 60.7197C29.2617 60.1387 28.9359 59.3513 28.9359 58.5303C28.9359 57.7093 29.2617 56.9219 29.8417 56.3409L31.6986 54.4817C32.2796 53.9016 33.067 53.5758 33.888 53.5758C34.709 53.5758 35.4964 53.9016 36.0774 54.4817L47.1876 65.5847L73.3529 37.7794C73.916 37.182 74.693 36.8324 75.5135 36.8074C76.334 36.7824 77.1309 37.0839 77.7293 37.6459L79.6362 39.4456C80.2344 40.0087 80.5844 40.7862 80.6094 41.6073C80.6344 42.4284 80.3324 43.2258 79.7697 43.8243L49.5784 75.925C49.2941 76.2279 48.9518 76.4707 48.5719 76.6387C48.1919 76.8067 47.7821 76.8966 47.3667 76.9031C46.9513 76.9095 46.5388 76.8324 46.1539 76.6762C45.7689 76.5201 45.4192 76.2881 45.1257 75.9941Z" fill="white"/>
</svg>
