<svg width="13" height="13" viewBox="0 0 13 13" fill="none" xmlns="http://www.w3.org/2000/svg">
<g clip-path="url(#clip0_1_5342)">
<path d="M2.16664 7.36667V6.93333C2.07806 6.93333 1.9916 6.96047 1.91891 7.01111C1.84622 7.06174 1.7908 7.13344 1.76011 7.21654C1.72942 7.29964 1.72494 7.39015 1.74726 7.47588C1.76959 7.5616 1.81765 7.63843 1.88498 7.696L2.16664 7.36667ZM1.73331 0.866667H11.2666V0H1.73331V0.866667ZM2.16664 7.8H4.76664V6.93333H2.16664V7.8ZM4.76664 0H2.16664V0.866667H4.76664V0ZM1.88498 7.696L7.95164 12.896L8.51498 12.2373L2.44831 7.03733L1.88498 7.696ZM8.66664 3.9C8.66664 3.38785 8.56577 2.8807 8.36977 2.40753C8.17378 1.93436 7.88651 1.50443 7.52436 1.14228C7.16221 0.780135 6.73228 0.492863 6.25911 0.29687C5.78594 0.100876 5.2788 0 4.76664 0V0.866667C5.57113 0.866667 6.34267 1.18625 6.91153 1.75511C7.48039 2.32397 7.79998 3.09551 7.79998 3.9H8.66664ZM4.76664 7.8C5.2788 7.8 5.78594 7.69912 6.25911 7.50313C6.73228 7.30714 7.16221 7.01987 7.52436 6.65772C7.88651 6.29557 8.17378 5.86564 8.36977 5.39247C8.56577 4.9193 8.66664 4.41216 8.66664 3.9H7.79998C7.79998 4.70449 7.48039 5.47603 6.91153 6.04489C6.34267 6.61375 5.57113 6.93333 4.76664 6.93333V7.8ZM1.73331 4.33333H11.2666V3.46667H1.73331V4.33333Z" fill="black"/>
</g>
<defs>
<clipPath id="clip0_1_5342">
<rect width="13" height="13" fill="white"/>
</clipPath>
</defs>
</svg>
