<svg width="17" height="19" viewBox="0 0 17 19" fill="none" xmlns="http://www.w3.org/2000/svg">
<path d="M8.49999 11.3333C8.2324 11.3333 8.00825 11.2427 7.82754 11.0613C7.64621 10.8806 7.55554 10.6565 7.55554 10.3889C7.55554 10.1213 7.64621 9.89682 7.82754 9.71549C8.00825 9.53478 8.2324 9.44443 8.49999 9.44443C8.76758 9.44443 8.99204 9.53478 9.17338 9.71549C9.35408 9.89682 9.44443 10.1213 9.44443 10.3889C9.44443 10.6565 9.35408 10.8806 9.17338 11.0613C8.99204 11.2427 8.76758 11.3333 8.49999 11.3333ZM4.72222 11.3333C4.45462 11.3333 4.23016 11.2427 4.04883 11.0613C3.86812 10.8806 3.77777 10.6565 3.77777 10.3889C3.77777 10.1213 3.86812 9.89682 4.04883 9.71549C4.23016 9.53478 4.45462 9.44443 4.72222 9.44443C4.98981 9.44443 5.21427 9.53478 5.3956 9.71549C5.57631 9.89682 5.66666 10.1213 5.66666 10.3889C5.66666 10.6565 5.57631 10.8806 5.3956 11.0613C5.21427 11.2427 4.98981 11.3333 4.72222 11.3333ZM12.2778 11.3333C12.0102 11.3333 11.786 11.2427 11.6053 11.0613C11.424 10.8806 11.3333 10.6565 11.3333 10.3889C11.3333 10.1213 11.424 9.89682 11.6053 9.71549C11.786 9.53478 12.0102 9.44443 12.2778 9.44443C12.5454 9.44443 12.7695 9.53478 12.9502 9.71549C13.1315 9.89682 13.2222 10.1213 13.2222 10.3889C13.2222 10.6565 13.1315 10.8806 12.9502 11.0613C12.7695 11.2427 12.5454 11.3333 12.2778 11.3333ZM8.49999 15.1111C8.2324 15.1111 8.00825 15.0204 7.82754 14.8391C7.64621 14.6584 7.55554 14.4342 7.55554 14.1666C7.55554 13.8991 7.64621 13.6749 7.82754 13.4942C8.00825 13.3129 8.2324 13.2222 8.49999 13.2222C8.76758 13.2222 8.99204 13.3129 9.17338 13.4942C9.35408 13.6749 9.44443 13.8991 9.44443 14.1666C9.44443 14.4342 9.35408 14.6584 9.17338 14.8391C8.99204 15.0204 8.76758 15.1111 8.49999 15.1111ZM4.72222 15.1111C4.45462 15.1111 4.23016 15.0204 4.04883 14.8391C3.86812 14.6584 3.77777 14.4342 3.77777 14.1666C3.77777 13.8991 3.86812 13.6749 4.04883 13.4942C4.23016 13.3129 4.45462 13.2222 4.72222 13.2222C4.98981 13.2222 5.21427 13.3129 5.3956 13.4942C5.57631 13.6749 5.66666 13.8991 5.66666 14.1666C5.66666 14.4342 5.57631 14.6584 5.3956 14.8391C5.21427 15.0204 4.98981 15.1111 4.72222 15.1111ZM12.2778 15.1111C12.0102 15.1111 11.786 15.0204 11.6053 14.8391C11.424 14.6584 11.3333 14.4342 11.3333 14.1666C11.3333 13.8991 11.424 13.6749 11.6053 13.4942C11.786 13.3129 12.0102 13.2222 12.2778 13.2222C12.5454 13.2222 12.7695 13.3129 12.9502 13.4942C13.1315 13.6749 13.2222 13.8991 13.2222 14.1666C13.2222 14.4342 13.1315 14.6584 12.9502 14.8391C12.7695 15.0204 12.5454 15.1111 12.2778 15.1111ZM1.88889 18.8889C1.36944 18.8889 0.92461 18.7041 0.554388 18.3345C0.184796 17.9643 0 17.5194 0 17V3.77777C0 3.25833 0.184796 2.81381 0.554388 2.44422C0.92461 2.074 1.36944 1.88889 1.88889 1.88889H2.83333V0H4.72222V1.88889H12.2778V0H14.1666V1.88889H15.1111C15.6305 1.88889 16.0754 2.074 16.4456 2.44422C16.8152 2.81381 17 3.25833 17 3.77777V17C17 17.5194 16.8152 17.9643 16.4456 18.3345C16.0754 18.7041 15.6305 18.8889 15.1111 18.8889H1.88889ZM1.88889 17H15.1111V7.55554H1.88889V17Z" fill="#8391A1"/>
</svg>
