<svg width="28" height="28" viewBox="0 0 28 28" fill="none" xmlns="http://www.w3.org/2000/svg">
<path d="M6.91401 16.6552L6.02798 19.9629L2.78954 20.0314C1.82172 18.2363 1.27276 16.1825 1.27276 14C1.27276 11.8895 1.78603 9.8993 2.69583 8.14687H2.69652L5.57964 8.67545L6.84262 11.5413C6.57828 12.3119 6.43421 13.1392 6.43421 14C6.43431 14.9343 6.60354 15.8294 6.91401 16.6552Z" fill="#FBBB00"/>
<path d="M26.5048 11.6223C26.651 12.3922 26.7272 13.1873 26.7272 13.9999C26.7272 14.9111 26.6314 15.7999 26.4489 16.6573C25.8293 19.5747 24.2105 22.1223 21.9678 23.9251L21.9671 23.9244L18.3357 23.7391L17.8217 20.5307C19.3098 19.658 20.4728 18.2922 21.0854 16.6573H14.2798V11.6223H21.1846H26.5048Z" fill="#518EF8"/>
<path d="M21.967 23.9246L21.9677 23.9252C19.7866 25.6784 17.016 26.7273 13.9999 26.7273C9.15305 26.7273 4.93909 24.0183 2.78943 20.0316L6.9139 16.6554C7.98871 19.5239 10.7558 21.5658 13.9999 21.5658C15.3943 21.5658 16.7006 21.1889 17.8215 20.5309L21.967 23.9246Z" fill="#28B446"/>
<path d="M22.1239 4.20281L18.0008 7.57832C16.8407 6.85316 15.4693 6.43426 14.0001 6.43426C10.6827 6.43426 7.86377 8.5699 6.84281 11.5413L2.69666 8.14687H2.69596C4.81416 4.06296 9.08126 1.27276 14.0001 1.27276C17.0882 1.27276 19.9197 2.37277 22.1239 4.20281Z" fill="#F14336"/>
</svg>
