<svg width="19" height="19" viewBox="0 0 19 19" fill="none" xmlns="http://www.w3.org/2000/svg">
<path d="M15.5167 16.625L10.5292 11.6375C10.1333 11.9542 9.67812 12.2049 9.16354 12.3896C8.64896 12.5743 8.10139 12.6667 7.52083 12.6667C6.08264 12.6667 4.86558 12.1687 3.86967 11.1728C2.87322 10.1763 2.375 8.95903 2.375 7.52083C2.375 6.08264 2.87322 4.86532 3.86967 3.86888C4.86558 2.87296 6.08264 2.375 7.52083 2.375C8.95903 2.375 10.1763 2.87296 11.1728 3.86888C12.1687 4.86532 12.6667 6.08264 12.6667 7.52083C12.6667 8.10139 12.5743 8.64896 12.3896 9.16354C12.2049 9.67812 11.9542 10.1333 11.6375 10.5292L16.625 15.5167L15.5167 16.625ZM7.52083 11.0833C8.51042 11.0833 9.35169 10.7371 10.0447 10.0447C10.7371 9.35169 11.0833 8.51042 11.0833 7.52083C11.0833 6.53125 10.7371 5.68997 10.0447 4.997C9.35169 4.30456 8.51042 3.95833 7.52083 3.95833C6.53125 3.95833 5.68997 4.30456 4.997 4.997C4.30456 5.68997 3.95833 6.53125 3.95833 7.52083C3.95833 8.51042 4.30456 9.35169 4.997 10.0447C5.68997 10.7371 6.53125 11.0833 7.52083 11.0833Z" fill="#8391A1"/>
</svg>
