<svg width="10" height="10" viewBox="0 0 10 10" fill="none" xmlns="http://www.w3.org/2000/svg">
<g clip-path="url(#clip0_1_4962)">
<path d="M1.66661 5.66667V5.33333C1.59847 5.33333 1.53196 5.35421 1.47605 5.39316C1.42013 5.43211 1.3775 5.48726 1.3539 5.55119C1.33029 5.61511 1.32684 5.68473 1.34401 5.75067C1.36118 5.81662 1.39816 5.87571 1.44994 5.92L1.66661 5.66667ZM1.33328 0.666667H8.66661V0H1.33328V0.666667ZM1.66661 6H3.66661V5.33333H1.66661V6ZM3.66661 0H1.66661V0.666667H3.66661V0ZM1.44994 5.92L6.11661 9.92L6.54995 9.41333L1.88328 5.41333L1.44994 5.92ZM6.66661 3C6.66661 2.60603 6.58902 2.21593 6.43825 1.85195C6.28749 1.48797 6.06651 1.15726 5.78793 0.87868C5.50936 0.600104 5.17864 0.379126 4.81466 0.228361C4.45069 0.0775973 4.06058 0 3.66661 0V0.666667C4.28545 0.666667 4.87894 0.912499 5.31653 1.35008C5.75411 1.78767 5.99995 2.38116 5.99995 3H6.66661ZM3.66661 6C4.06058 6 4.45069 5.9224 4.81466 5.77164C5.17864 5.62088 5.50936 5.3999 5.78793 5.12132C6.06651 4.84275 6.28749 4.51203 6.43825 4.14805C6.58902 3.78407 6.66661 3.39397 6.66661 3H5.99995C5.99995 3.61884 5.75411 4.21233 5.31653 4.64992C4.87894 5.0875 4.28545 5.33333 3.66661 5.33333V6ZM1.33328 3.33333H8.66661V2.66667H1.33328V3.33333Z" fill="#8391A1"/>
</g>
<defs>
<clipPath id="clip0_1_4962">
<rect width="10" height="10" fill="white"/>
</clipPath>
</defs>
</svg>
